<svg id="visual" viewBox="0 0 900 600" width="900" height="600" xmlns="http://www.w3.org/2000/svg" xmlns:xlink="http://www.w3.org/1999/xlink" version="1.1"><rect x="0" y="0" width="900" height="600" fill="#000000"></rect><path d="M0 110L21.5 128C43 146 86 182 128.8 202.5C171.7 223 214.3 228 257.2 238.5C300 249 343 265 385.8 272.5C428.7 280 471.3 279 514.2 255C557 231 600 184 642.8 171C685.7 158 728.3 179 771.2 189.5C814 200 857 200 878.5 200L900 200L900 601L878.5 601C857 601 814 601 771.2 601C728.3 601 685.7 601 642.8 601C600 601 557 601 514.2 601C471.3 601 428.7 601 385.8 601C343 601 300 601 257.2 601C214.3 601 171.7 601 128.8 601C86 601 43 601 21.5 601L0 601Z" fill="#f552ff"></path><path d="M0 204L21.5 219C43 234 86 264 128.8 280.5C171.7 297 214.3 300 257.2 282.8C300 265.7 343 228.3 385.8 227.5C428.7 226.7 471.3 262.3 514.2 284.3C557 306.3 600 314.7 642.8 320.2C685.7 325.7 728.3 328.3 771.2 311.2C814 294 857 257 878.5 238.5L900 220L900 601L878.5 601C857 601 814 601 771.2 601C728.3 601 685.7 601 642.8 601C600 601 557 601 514.2 601C471.3 601 428.7 601 385.8 601C343 601 300 601 257.2 601C214.3 601 171.7 601 128.8 601C86 601 43 601 21.5 601L0 601Z" fill="#d251fa"></path><path d="M0 297L21.5 303C43 309 86 321 128.8 330.2C171.7 339.3 214.3 345.7 257.2 344.5C300 343.3 343 334.7 385.8 342C428.7 349.3 471.3 372.7 514.2 374C557 375.3 600 354.7 642.8 338.2C685.7 321.7 728.3 309.3 771.2 318.5C814 327.7 857 358.3 878.5 373.7L900 389L900 601L878.5 601C857 601 814 601 771.2 601C728.3 601 685.7 601 642.8 601C600 601 557 601 514.2 601C471.3 601 428.7 601 385.8 601C343 601 300 601 257.2 601C214.3 601 171.7 601 128.8 601C86 601 43 601 21.5 601L0 601Z" fill="#ad4ff4"></path><path d="M0 409L21.5 408.5C43 408 86 407 128.8 409C171.7 411 214.3 416 257.2 429.2C300 442.3 343 463.7 385.8 454C428.7 444.3 471.3 403.7 514.2 397.8C557 392 600 421 642.8 429.7C685.7 438.3 728.3 426.7 771.2 422.7C814 418.7 857 422.3 878.5 424.2L900 426L900 601L878.5 601C857 601 814 601 771.2 601C728.3 601 685.7 601 642.8 601C600 601 557 601 514.2 601C471.3 601 428.7 601 385.8 601C343 601 300 601 257.2 601C214.3 601 171.7 601 128.8 601C86 601 43 601 21.5 601L0 601Z" fill="#854dec"></path><path d="M0 545L21.5 533.8C43 522.7 86 500.3 128.8 498.2C171.7 496 214.3 514 257.2 523C300 532 343 532 385.8 534.3C428.7 536.7 471.3 541.3 514.2 542C557 542.7 600 539.3 642.8 532C685.7 524.7 728.3 513.3 771.2 514.5C814 515.7 857 529.3 878.5 536.2L900 543L900 601L878.5 601C857 601 814 601 771.2 601C728.3 601 685.7 601 642.8 601C600 601 557 601 514.2 601C471.3 601 428.7 601 385.8 601C343 601 300 601 257.2 601C214.3 601 171.7 601 128.8 601C86 601 43 601 21.5 601L0 601Z" fill="#574ae2"></path></svg>