<svg id="visual" viewBox="0 0 900 600" width="900" height="600" xmlns="http://www.w3.org/2000/svg" xmlns:xlink="http://www.w3.org/1999/xlink" version="1.1"><rect x="0" y="0" width="900" height="600" fill="#001220"></rect><path d="M0 134L21.5 133.3C43 132.7 86 131.3 128.8 143.5C171.7 155.7 214.3 181.3 257.2 181.3C300 181.3 343 155.7 385.8 154.8C428.7 154 471.3 178 514.2 185.8C557 193.7 600 185.3 642.8 173C685.7 160.7 728.3 144.3 771.2 138.3C814 132.3 857 136.7 878.5 138.8L900 141L900 601L878.5 601C857 601 814 601 771.2 601C728.3 601 685.7 601 642.8 601C600 601 557 601 514.2 601C471.3 601 428.7 601 385.8 601C343 601 300 601 257.2 601C214.3 601 171.7 601 128.8 601C86 601 43 601 21.5 601L0 601Z" fill="#c75efb"></path><path d="M0 277L21.5 272.3C43 267.7 86 258.3 128.8 252.5C171.7 246.7 214.3 244.3 257.2 245C300 245.7 343 249.3 385.8 253.7C428.7 258 471.3 263 514.2 263.7C557 264.3 600 260.7 642.8 251.5C685.7 242.3 728.3 227.7 771.2 221.8C814 216 857 219 878.5 220.5L900 222L900 601L878.5 601C857 601 814 601 771.2 601C728.3 601 685.7 601 642.8 601C600 601 557 601 514.2 601C471.3 601 428.7 601 385.8 601C343 601 300 601 257.2 601C214.3 601 171.7 601 128.8 601C86 601 43 601 21.5 601L0 601Z" fill="#ae58f5"></path><path d="M0 292L21.5 303.7C43 315.3 86 338.7 128.8 338.3C171.7 338 214.3 314 257.2 304.2C300 294.3 343 298.7 385.8 307.5C428.7 316.3 471.3 329.7 514.2 334.8C557 340 600 337 642.8 340.8C685.7 344.7 728.3 355.3 771.2 350.7C814 346 857 326 878.5 316L900 306L900 601L878.5 601C857 601 814 601 771.2 601C728.3 601 685.7 601 642.8 601C600 601 557 601 514.2 601C471.3 601 428.7 601 385.8 601C343 601 300 601 257.2 601C214.3 601 171.7 601 128.8 601C86 601 43 601 21.5 601L0 601Z" fill="#9453ef"></path><path d="M0 443L21.5 433.2C43 423.3 86 403.7 128.8 398.2C171.7 392.7 214.3 401.3 257.2 411.2C300 421 343 432 385.8 427.7C428.7 423.3 471.3 403.7 514.2 396.5C557 389.3 600 394.7 642.8 400.2C685.7 405.7 728.3 411.3 771.2 415.2C814 419 857 421 878.5 422L900 423L900 601L878.5 601C857 601 814 601 771.2 601C728.3 601 685.7 601 642.8 601C600 601 557 601 514.2 601C471.3 601 428.7 601 385.8 601C343 601 300 601 257.2 601C214.3 601 171.7 601 128.8 601C86 601 43 601 21.5 601L0 601Z" fill="#784ee9"></path><path d="M0 521L21.5 515.5C43 510 86 499 128.8 491.8C171.7 484.7 214.3 481.3 257.2 486C300 490.7 343 503.3 385.8 504.2C428.7 505 471.3 494 514.2 489.5C557 485 600 487 642.8 494.3C685.7 501.7 728.3 514.3 771.2 520.5C814 526.7 857 526.3 878.5 526.2L900 526L900 601L878.5 601C857 601 814 601 771.2 601C728.3 601 685.7 601 642.8 601C600 601 557 601 514.2 601C471.3 601 428.7 601 385.8 601C343 601 300 601 257.2 601C214.3 601 171.7 601 128.8 601C86 601 43 601 21.5 601L0 601Z" fill="#574ae2"></path></svg>