<svg id="visual" viewBox="0 0 900 600" width="900" height="600" xmlns="http://www.w3.org/2000/svg" xmlns:xlink="http://www.w3.org/1999/xlink" version="1.1"><rect x="0" y="0" width="900" height="600" fill="#000000"></rect><path d="M0 110L25 121.2C50 132.3 100 154.7 150 160C200 165.3 250 153.7 300 145.3C350 137 400 132 450 130.3C500 128.7 550 130.3 600 129.7C650 129 700 126 750 114C800 102 850 81 875 70.5L900 60L900 601L875 601C850 601 800 601 750 601C700 601 650 601 600 601C550 601 500 601 450 601C400 601 350 601 300 601C250 601 200 601 150 601C100 601 50 601 25 601L0 601Z" fill="#ca69fa"></path><path d="M0 214L25 223.2C50 232.3 100 250.7 150 245C200 239.3 250 209.7 300 209.8C350 210 400 240 450 238.2C500 236.3 550 202.7 600 189.7C650 176.7 700 184.3 750 191.3C800 198.3 850 204.7 875 207.8L900 211L900 601L875 601C850 601 800 601 750 601C700 601 650 601 600 601C550 601 500 601 450 601C400 601 350 601 300 601C250 601 200 601 150 601C100 601 50 601 25 601L0 601Z" fill="#a764f0"></path><path d="M0 276L25 282.8C50 289.7 100 303.3 150 310.7C200 318 250 319 300 312.3C350 305.7 400 291.3 450 293.3C500 295.3 550 313.7 600 328C650 342.3 700 352.7 750 343.8C800 335 850 307 875 293L900 279L900 601L875 601C850 601 800 601 750 601C700 601 650 601 600 601C550 601 500 601 450 601C400 601 350 601 300 601C250 601 200 601 150 601C100 601 50 601 25 601L0 601Z" fill="#825ee4"></path><path d="M0 388L25 396.2C50 404.3 100 420.7 150 431.8C200 443 250 449 300 442.7C350 436.3 400 417.7 450 413.8C500 410 550 421 600 417.2C650 413.3 700 394.7 750 390C800 385.3 850 394.7 875 399.3L900 404L900 601L875 601C850 601 800 601 750 601C700 601 650 601 600 601C550 601 500 601 450 601C400 601 350 601 300 601C250 601 200 601 150 601C100 601 50 601 25 601L0 601Z" fill="#5a57d6"></path><path d="M0 537L25 524.8C50 512.7 100 488.3 150 474.3C200 460.3 250 456.7 300 454.5C350 452.3 400 451.7 450 455.8C500 460 550 469 600 483.8C650 498.7 700 519.3 750 522.7C800 526 850 512 875 505L900 498L900 601L875 601C850 601 800 601 750 601C700 601 650 601 600 601C550 601 500 601 450 601C400 601 350 601 300 601C250 601 200 601 150 601C100 601 50 601 25 601L0 601Z" fill="#2450c7"></path></svg>