<svg id="visual" viewBox="0 0 900 600" width="900" height="600" xmlns="http://www.w3.org/2000/svg" xmlns:xlink="http://www.w3.org/1999/xlink" version="1.1"><path d="M0 55L50 55C100 55 200 55 300 61C400 67 500 79 600 84C700 89 800 87 850 86L900 85L900 0L850 0C800 0 700 0 600 0C500 0 400 0 300 0C200 0 100 0 50 0L0 0Z" fill="#ff0f58"></path><path d="M0 145L50 156C100 167 200 189 300 210C400 231 500 251 600 246C700 241 800 211 850 196L900 181L900 83L850 84C800 85 700 87 600 82C500 77 400 65 300 59C200 53 100 53 50 53L0 53Z" fill="#e465cb"></path><path d="M0 277L50 291C100 305 200 333 300 352C400 371 500 381 600 365C700 349 800 307 850 286L900 265L900 179L850 194C800 209 700 239 600 244C500 249 400 229 300 208C200 187 100 165 50 154L0 143Z" fill="#93a3ff"></path><path d="M0 493L50 498C100 503 200 513 300 515C400 517 500 511 600 511C700 511 800 517 850 520L900 523L900 263L850 284C800 305 700 347 600 363C500 379 400 369 300 350C200 331 100 303 50 289L0 275Z" fill="#19ceff"></path><path d="M0 601L50 601C100 601 200 601 300 601C400 601 500 601 600 601C700 601 800 601 850 601L900 601L900 521L850 518C800 515 700 509 600 509C500 509 400 515 300 513C200 511 100 501 50 496L0 491Z" fill="#00f0ff"></path></svg>