<svg id="visual" viewBox="0 0 900 600" width="900" height="600" xmlns="http://www.w3.org/2000/svg" xmlns:xlink="http://www.w3.org/1999/xlink" version="1.1"><rect x="0" y="0" width="900" height="600" fill="#000000"></rect><path d="M0 133L21.5 124.3C43 115.7 86 98.3 128.8 88.7C171.7 79 214.3 77 257.2 95.5C300 114 343 153 385.8 152.7C428.7 152.3 471.3 112.7 514.2 106C557 99.3 600 125.7 642.8 130.8C685.7 136 728.3 120 771.2 120C814 120 857 136 878.5 144L900 152L900 601L878.5 601C857 601 814 601 771.2 601C728.3 601 685.7 601 642.8 601C600 601 557 601 514.2 601C471.3 601 428.7 601 385.8 601C343 601 300 601 257.2 601C214.3 601 171.7 601 128.8 601C86 601 43 601 21.5 601L0 601Z" fill="#69b8fa"></path><path d="M0 276L21.5 252.5C43 229 86 182 128.8 172.3C171.7 162.7 214.3 190.3 257.2 203.5C300 216.7 343 215.3 385.8 224.5C428.7 233.7 471.3 253.3 514.2 253.3C557 253.3 600 233.7 642.8 224.8C685.7 216 728.3 218 771.2 214.2C814 210.3 857 200.7 878.5 195.8L900 191L900 601L878.5 601C857 601 814 601 771.2 601C728.3 601 685.7 601 642.8 601C600 601 557 601 514.2 601C471.3 601 428.7 601 385.8 601C343 601 300 601 257.2 601C214.3 601 171.7 601 128.8 601C86 601 43 601 21.5 601L0 601Z" fill="#3da2ff"></path><path d="M0 246L21.5 253C43 260 86 274 128.8 278C171.7 282 214.3 276 257.2 264.8C300 253.7 343 237.3 385.8 239.3C428.7 241.3 471.3 261.7 514.2 280.7C557 299.7 600 317.3 642.8 320.5C685.7 323.7 728.3 312.3 771.2 305.2C814 298 857 295 878.5 293.5L900 292L900 601L878.5 601C857 601 814 601 771.2 601C728.3 601 685.7 601 642.8 601C600 601 557 601 514.2 601C471.3 601 428.7 601 385.8 601C343 601 300 601 257.2 601C214.3 601 171.7 601 128.8 601C86 601 43 601 21.5 601L0 601Z" fill="#0d8bff"></path><path d="M0 315L21.5 327.3C43 339.7 86 364.3 128.8 378.3C171.7 392.3 214.3 395.7 257.2 400C300 404.3 343 409.7 385.8 400.5C428.7 391.3 471.3 367.7 514.2 355.3C557 343 600 342 642.8 346C685.7 350 728.3 359 771.2 356.5C814 354 857 340 878.5 333L900 326L900 601L878.5 601C857 601 814 601 771.2 601C728.3 601 685.7 601 642.8 601C600 601 557 601 514.2 601C471.3 601 428.7 601 385.8 601C343 601 300 601 257.2 601C214.3 601 171.7 601 128.8 601C86 601 43 601 21.5 601L0 601Z" fill="#0070ff"></path><path d="M0 465L21.5 451.3C43 437.7 86 410.3 128.8 402.5C171.7 394.7 214.3 406.3 257.2 422.7C300 439 343 460 385.8 464.8C428.7 469.7 471.3 458.3 514.2 448.2C557 438 600 429 642.8 435.8C685.7 442.7 728.3 465.3 771.2 464.2C814 463 857 438 878.5 425.5L900 413L900 601L878.5 601C857 601 814 601 771.2 601C728.3 601 685.7 601 642.8 601C600 601 557 601 514.2 601C471.3 601 428.7 601 385.8 601C343 601 300 601 257.2 601C214.3 601 171.7 601 128.8 601C86 601 43 601 21.5 601L0 601Z" fill="#004eff"></path><path d="M0 511L21.5 509.2C43 507.3 86 503.7 128.8 510.8C171.7 518 214.3 536 257.2 530.5C300 525 343 496 385.8 484.8C428.7 473.7 471.3 480.3 514.2 489.5C557 498.7 600 510.3 642.8 512.2C685.7 514 728.3 506 771.2 510.3C814 514.7 857 531.3 878.5 539.7L900 548L900 601L878.5 601C857 601 814 601 771.2 601C728.3 601 685.7 601 642.8 601C600 601 557 601 514.2 601C471.3 601 428.7 601 385.8 601C343 601 300 601 257.2 601C214.3 601 171.7 601 128.8 601C86 601 43 601 21.5 601L0 601Z" fill="#4d00ff"></path></svg>